<?xml version="1.0" standalone="no"?>
<!DOCTYPE svg PUBLIC "-//W3C//DTD SVG 20010904//EN"
 "http://www.w3.org/TR/2001/REC-SVG-20010904/DTD/svg10.dtd">
<svg version="1.0" xmlns="http://www.w3.org/2000/svg"
 width="512.000000pt" height="512.000000pt" viewBox="0 0 512.000000 512.000000"
 preserveAspectRatio="xMidYMid meet">

<g transform="translate(0.000000,512.000000) scale(0.100000,-0.100000)"
fill="#000000" stroke="none">
<path d="M2705 5045 c-99 -40 -191 -80 -203 -90 -29 -21 -27 -43 11 -188 77
-287 58 -544 -55 -745 -47 -82 -44 -85 163 -222 201 -134 220 -140 264 -88 40
47 120 222 149 323 43 153 50 211 50 405 0 191 -12 287 -55 454 -44 175 -73
227 -123 225 -11 0 -102 -34 -201 -74z m184 -172 c91 -340 74 -681 -45 -943
-20 -44 -38 -80 -40 -80 -16 0 -204 136 -200 144 79 176 100 285 93 486 -4
105 -13 185 -27 250 -12 52 -24 104 -27 115 -3 17 10 26 99 62 57 22 108 42
114 42 7 1 21 -34 33 -76z"/>
<path d="M3563 5106 c-121 -40 -209 -147 -228 -277 -14 -92 34 -211 111 -278
64 -57 117 -76 214 -76 73 0 93 4 142 28 62 30 115 83 150 149 20 37 23 58 23
143 0 112 -14 151 -81 225 -74 82 -224 121 -331 86z m160 -140 c80 -29 122
-97 115 -187 -9 -124 -132 -201 -246 -154 -75 32 -115 90 -115 170 0 130 122
215 246 171z"/>
<path d="M1930 4773 c-37 -14 -74 -49 -91 -87 -28 -62 -27 -273 2 -332 35 -74
71 -88 229 -92 126 -3 138 -2 180 20 32 17 52 37 68 68 21 42 23 55 20 186 -3
138 -4 141 -32 178 -43 57 -75 66 -228 65 -73 0 -140 -3 -148 -6z m265 -253
l0 -115 -95 -3 c-148 -4 -140 -11 -140 117 0 59 3 111 7 115 4 3 57 5 117 4
l111 -3 0 -115z"/>
<path d="M4180 4549 c-213 -30 -372 -192 -387 -394 l-6 -75 -33 0 c-199 0
-391 -159 -433 -358 -6 -29 -11 -69 -11 -87 0 -35 0 -35 -47 -35 -95 0 -194
-39 -270 -105 -74 -64 -70 -74 117 -260 l160 -160 84 -3 c149 -7 251 28 348
117 73 67 123 164 140 272 l11 76 76 12 c124 19 251 90 251 139 0 11 -9 31
-21 46 -26 33 -67 34 -117 1 -56 -37 -145 -57 -222 -49 -56 5 -69 3 -90 -14
-23 -19 -25 -28 -31 -139 -6 -130 -15 -156 -76 -224 -54 -60 -121 -90 -212
-96 l-76 -5 -104 105 -104 105 34 18 c25 13 63 19 146 22 146 5 147 7 149 145
1 124 23 185 91 248 71 65 121 83 239 83 138 1 144 7 144 131 0 132 18 185 89
256 66 66 125 89 225 89 l61 0 104 -104 103 -103 -44 -18 c-29 -12 -78 -20
-148 -23 -119 -5 -140 -15 -140 -68 0 -55 35 -74 139 -74 139 1 238 34 322
108 33 30 42 45 42 71 0 29 -18 51 -154 187 -85 85 -163 156 -174 159 -48 9
-124 11 -175 4z"/>
<path d="M1555 4141 c-51 -23 -89 -64 -114 -121 -10 -25 -338 -868 -728 -1875
-677 -1750 -708 -1833 -708 -1895 0 -74 19 -120 70 -173 50 -51 100 -72 175
-72 61 0 107 16 805 287 407 158 1241 481 1853 717 612 237 1125 438 1140 445
64 33 112 113 112 183 -1 89 20 67 -1213 1301 -911 911 -1183 1178 -1221 1197
-59 30 -116 32 -171 6z m241 -263 l131 -133 423 -1305 c233 -718 425 -1309
427 -1315 3 -9 -425 -181 -431 -173 -1 1 -87 264 -190 583 -104 319 -193 586
-199 594 -41 50 -127 19 -127 -46 0 -9 86 -279 190 -601 105 -322 188 -588
184 -591 -3 -3 -54 -25 -112 -47 -94 -37 -108 -40 -115 -25 -16 35 -737 2262
-737 2278 0 9 30 95 67 191 l68 174 78 -238 c82 -251 94 -274 147 -274 29 0
70 39 70 66 0 7 -47 157 -105 335 l-104 322 60 156 c33 86 65 161 71 168 6 7
25 13 42 13 27 0 49 -18 162 -132z m1039 -1659 c168 -514 307 -941 310 -950 4
-12 -18 -25 -103 -57 -60 -23 -113 -42 -118 -42 -5 0 -180 526 -388 1168 -208
642 -381 1174 -384 1182 -2 8 82 -71 187 -176 l192 -190 304 -935z m1175 -585
c0 -17 -6 -36 -13 -42 -13 -11 -709 -283 -713 -279 -4 4 -514 1576 -514 1584
0 4 279 -271 620 -612 556 -556 620 -623 620 -651z m-2510 177 c247 -760 339
-1056 330 -1061 -38 -23 -413 -161 -420 -154 -4 5 -123 366 -265 803 l-257
793 127 332 c133 344 135 349 140 344 1 -2 157 -477 345 -1057z m-461 -556
c127 -391 231 -715 231 -720 0 -9 -220 -99 -225 -93 -2 2 -89 267 -194 589
l-191 586 66 169 c67 172 74 188 79 182 2 -2 107 -323 234 -713z m-293 -370
c100 -307 157 -496 150 -499 -91 -36 -599 -231 -620 -237 -58 -17 -129 38
-129 100 0 28 421 1131 432 1131 3 0 79 -223 167 -495z"/>
<path d="M1685 2645 c-14 -13 -25 -32 -25 -43 0 -40 43 -143 65 -158 33 -22
74 -14 98 18 l21 28 -24 76 c-25 78 -46 104 -88 104 -12 0 -34 -11 -47 -25z"/>
<path d="M4739 3980 c-98 -16 -191 -87 -236 -178 -37 -76 -40 -201 -6 -274 32
-70 94 -131 165 -163 160 -72 348 -4 425 153 24 49 28 69 28 142 0 68 -5 94
-23 131 -68 138 -208 212 -353 189z m146 -163 c101 -57 123 -188 47 -279 -34
-40 -78 -58 -142 -58 -79 0 -133 37 -165 112 -50 121 38 248 170 248 33 0 63
-8 90 -23z"/>
<path d="M4285 3083 c-198 -18 -473 -114 -576 -201 -49 -40 -41 -62 91 -261
137 -207 140 -210 222 -163 201 113 458 132 745 55 137 -36 165 -39 185 -16 9
10 51 105 94 212 89 222 89 232 14 267 -66 32 -276 82 -414 99 -110 14 -261
17 -361 8z m420 -158 c105 -18 245 -54 245 -63 0 -4 -19 -55 -42 -115 -41
-103 -44 -107 -68 -102 -140 35 -222 47 -360 52 -201 7 -310 -14 -486 -93 -8
-4 -144 184 -144 200 0 9 167 78 237 97 179 50 415 59 618 24z"/>
<path d="M4346 2318 c-24 -14 -48 -40 -63 -67 -21 -39 -23 -58 -23 -171 0
-154 17 -199 90 -237 38 -21 57 -23 169 -23 145 0 192 15 232 71 23 32 24 41
24 191 0 143 -2 159 -21 184 -47 64 -62 69 -222 72 -137 2 -150 1 -186 -20z
m289 -238 l0 -115 -109 -3 c-81 -2 -112 1 -118 10 -9 16 -11 212 -1 222 4 3
57 5 117 4 l111 -3 0 -115z"/>
</g>
</svg>
